<svg viewBox="0 0 18 18" class="" role="presentation" focusable="false" xmlns="http://www.w3.org/2000/svg" xmlns:xlink="http://www.w3.org/1999/xlink" id="FxSymbol0-023" data-type="1"><g><title>Icon-analytics-145</title><path fill="url(#a7e94d50-ea1e-4031-9fd0-4bab324fe01b)" d="M1.47 1.47l15.06 15.06a.57.57 0 001-.4V1.07a.57.57 0 00-.6-.57H1.87a.57.57 0 00-.4.97z"></path><path fill="#50e6ff" d="M5.53 5.53l6.94 6.94 5-5v-6.4a.57.57 0 00-.54-.57h-6.37z"></path><rect width="9.37" height="1.7" x="-.38" y="12.85" fill="url(#a7e94d50-ea1e-4031-9fd0-4bab324fe01c)" rx=".27" transform="rotate(-45 4.307 13.706)"></rect><rect width="5.99" height="1.7" x=".12" y="9.23" fill="url(#a7e94d50-ea1e-4031-9fd0-4bab324fe01d)" rx=".27" transform="rotate(-45 3.107 10.083)"></rect><rect width="5.99" height="1.7" x="4.89" y="14.04" fill="url(#a7e94d50-ea1e-4031-9fd0-4bab324fe01e)" rx=".27" transform="rotate(-45 7.877 14.887)"></rect><rect width="1.7" height="1.7" x="9.19" y="4.75" rx=".38" transform="rotate(-45 10.04 5.601)" class="msportalfx-svg-c01" fill="#ffffff"></rect><rect width="1.7" height="1.7" x="11.59" y="2.35" rx=".38" transform="rotate(-45 12.435 3.2)" class="msportalfx-svg-c01" fill="#ffffff"></rect><rect width="1.7" height="1.7" x="11.59" y="7.15" rx=".38" transform="rotate(-45 12.442 7.996)" class="msportalfx-svg-c01" fill="#ffffff"></rect><path d="M13.91 5.33l.66-.66a.38.38 0 01.54 0l.66.66a.38.38 0 010 .54l-.66.66a.38.38 0 01-.54 0l-.66-.66a.38.38 0 010-.54" class="msportalfx-svg-c01" fill="#ffffff"></path></g><defs>
<linearGradient id="a7e94d50-ea1e-4031-9fd0-4bab324fe01b" x1="1.3" x2="17.5" y1="8.6" y2="8.6" gradientUnits="userSpaceOnUse"><stop offset=".1" stop-color="#54aef0"></stop><stop offset="1" stop-color="#1988d9"></stop></linearGradient>
<linearGradient id="a7e94d50-ea1e-4031-9fd0-4bab324fe01c" x1=".5" x2="8.11" y1="13.7" y2="13.7" gradientTransform="rotate(45 4.304 13.703)" gradientUnits="userSpaceOnUse"><stop offset="0" stop-color="#b3b2b3"></stop><stop offset="1" stop-color="#979797"></stop></linearGradient>
<linearGradient id="a7e94d50-ea1e-4031-9fd0-4bab324fe01d" x1=".5" x2="5.72" y1="10.08" y2="10.08" gradientTransform="rotate(45 3.115 10.08)" gradientUnits="userSpaceOnUse"><stop offset="0" stop-color="#b3b2b3"></stop><stop offset="1" stop-color="#979797"></stop></linearGradient>
<linearGradient id="a7e94d50-ea1e-4031-9fd0-4bab324fe01e" x1="5.28" x2="10.49" y1="14.89" y2="14.89" gradientTransform="rotate(45 7.88 14.894)" gradientUnits="userSpaceOnUse"><stop offset="0" stop-color="#b3b2b3"></stop><stop offset="1" stop-color="#979797"></stop></linearGradient>
</defs>
</svg>